# xmcd CD database file
#
# Track frame offsets:
#	150
#	23400
#	45825
#	63642
#	67547
#
# Disc length: 1208 seconds
#
# Revision: 5
# Processed by: cddbd v1.5PL3 Copyright (c) Steve Scherf et al.
# Submitted via: CDex 1.50
#
DISCID=2d04b605
DTITLE=はなわ - 佐賀県
DYEAR=2003
DGENRE=Vocal
TTITLE0=佐賀県
TTITLE1=佐賀県(あこーすてぃっく)
TTITLE2=故郷(フィーチャリング CRY -叫-
TTITLE3=さびしいな
TTITLE4=佐賀県(はなわ いないばーじょん)
EXTD=YEAR: 2003
EXTT0=
EXTT1=
EXTT2=
EXTT3=
EXTT4=
PLAYORDER=
